<?xml version="1.0" encoding="utf-8"?>
<!-- Generator: Adobe Illustrator 19.0.1, SVG Export Plug-In . SVG Version: 6.00 Build 0)  -->
<svg version="1.1" id="Layer_1" xmlns="http://www.w3.org/2000/svg" xmlns:xlink="http://www.w3.org/1999/xlink" x="0px" y="0px"
	 viewBox="0 0 32 39" style="enable-background:new 0 0 32 39;" xml:space="preserve">
<style type="text/css">
	.st0{fill:#C2C2C2;}
</style>
<g transform="translate(0,-952.36218)">
	<path class="st0" d="M0.2,952.4v7.4h4c0.3-0.6,0.9-0.9,1.6-0.9c1,0,1.9,0.8,1.9,1.9c0,1-0.8,1.9-1.9,1.9c-0.7,0-1.3-0.4-1.6-0.9h-4
		v9.3h4c0.3-0.6,0.9-0.9,1.6-0.9c1,0,1.9,0.8,1.9,1.9s-0.8,1.9-1.9,1.9c-0.7,0-1.3-0.4-1.6-0.9h-4v9.3h4c0.3-0.6,0.9-0.9,1.6-0.9
		c1,0,1.9,0.8,1.9,1.9c0,1-0.8,1.9-1.9,1.9c-0.7,0-1.3-0.4-1.6-0.9h-4v7.4h31.6v-39H0.2z M19.7,962.6c1.8,0,3.2,1.7,3.2,3.7
		s-1.5,3.7-3.2,3.7c-1.8,0-3.2-1.7-3.2-3.7S17.9,962.6,19.7,962.6z M19.7,973.7c4.1,0,7.4,1.7,7.4,3.7v3.7H12.3v-3.7
		C12.3,975.4,15.6,973.7,19.7,973.7z"/>
</g>
</svg>
