<?xml version="1.0" encoding="utf-8"?>
<!-- Generator: Adobe Illustrator 19.0.1, SVG Export Plug-In . SVG Version: 6.00 Build 0)  -->
<svg version="1.1" id="Layer_1" xmlns="http://www.w3.org/2000/svg" xmlns:xlink="http://www.w3.org/1999/xlink" x="0px" y="0px"
	 viewBox="0 0 28 42" style="enable-background:new 0 0 28 42;" xml:space="preserve">
<style type="text/css">
	.st0{fill:#C2C2C2;}
</style>
<path class="st0" d="M26.5,11.7h-5.8v-6c0-0.1,0-2.2-1.6-3.9C17.9,0.6,16.2,0,14,0l0,0l0,0c-2.2,0-3.9,0.6-5.1,1.8
	C7.3,3.5,7.3,5.6,7.3,5.7v6H1.5L0.1,42H14h13.9L26.5,11.7z M8,16.4c-1,0-1.7-0.8-1.7-1.7c0-0.7,0.4-1.3,1-1.6v1.1
	c0,0.4,0.3,0.7,0.7,0.7c0.4,0,0.7-0.3,0.7-0.7v-1.1c0.6,0.3,1,0.9,1,1.5C9.8,15.6,9,16.4,8,16.4z M8.8,11.7v-6c0,0,0-1.7,1.2-2.9
	c0.9-0.9,2.2-1.4,4-1.4s3.1,0.5,4,1.4c1.2,1.2,1.2,2.8,1.2,2.9v6L8.8,11.7L8.8,11.7z M19.9,16.4c-1,0-1.7-0.8-1.7-1.7
	c0-0.7,0.4-1.3,1-1.6v1.1c0,0.4,0.3,0.7,0.7,0.7s0.7-0.3,0.7-0.7v-1.1c0.6,0.3,1,0.9,1,1.6C21.7,15.6,20.9,16.4,19.9,16.4z"/>
</svg>
