<?xml version="1.0" encoding="utf-8"?>
<!-- Generator: Adobe Illustrator 19.0.1, SVG Export Plug-In . SVG Version: 6.00 Build 0)  -->
<svg version="1.1" id="Layer_1" xmlns="http://www.w3.org/2000/svg" xmlns:xlink="http://www.w3.org/1999/xlink" x="0px" y="0px"
	 viewBox="0 0 27 34" style="enable-background:new 0 0 27 34;" xml:space="preserve">
<style type="text/css">
	.st0{fill:#C2C2C2;}
</style>
<g>
	<path class="st0" d="M26.9,26c-0.5-3.1-2.6-4.8-5.5-5.5c-3.3-0.9-6.6-1.2-10-1c-2.7,0.2-5.3,0.6-7.8,1.7c-2.4,1.1-3.5,3-3.6,5.6
		c0,0.5,0.1,1.1,0.5,1.4c5.1,5.2,11.2,6.9,18.3,5.3c3.1-0.7,5.7-2.3,8.1-4.2 M4.6,8.9c0,4.9,3.9,9,8.8,9c5,0,9-3.9,9.1-8.9
		c0-4.9-4-9-8.8-9C8.6,0,4.6,3.9,4.6,8.9z"/>
	<path class="st0" d="M26.9,29.2c-2.4,1.9-5,3.6-8.1,4.2c-7.1,1.6-13.2-0.1-18.3-5.3c-0.3-0.3-0.5-0.9-0.5-1.4
		c0.1-2.5,1.1-4.5,3.6-5.6c2.5-1.1,5.1-1.5,7.8-1.7c3.4-0.2,6.7,0.1,10,1c2.9,0.8,4.9,2.4,5.5,5.5C26.9,27.1,26.9,28.1,26.9,29.2z"
		/>
	<path class="st0" d="M4.6,8.9c0-5,4-8.9,9.1-8.9c4.8,0,8.9,4.1,8.8,9c0,5-4.1,8.9-9.1,8.9C8.5,17.9,4.6,13.8,4.6,8.9z"/>
</g>
</svg>
