<?xml version="1.0" encoding="utf-8"?>
<!-- Generator: Adobe Illustrator 19.0.1, SVG Export Plug-In . SVG Version: 6.00 Build 0)  -->
<svg version="1.1" id="Layer_1" xmlns="http://www.w3.org/2000/svg" xmlns:xlink="http://www.w3.org/1999/xlink" x="0px" y="0px"
	 viewBox="0 0 42 47" style="enable-background:new 0 0 42 47;" xml:space="preserve">
<style type="text/css">
	.st0{fill:#C2C2C2;}
</style>
<g>
	<path class="st0" d="M26.4,11.7h-5.8v-6c0-0.1,0-2.2-1.6-3.9C17.8,0.6,16.1,0,13.9,0C11.7,0,10,0.6,8.8,1.8
		C7.2,3.5,7.2,5.6,7.2,5.7v6H1.4L0,42h13.9h4.8c-1.1-2-1.7-4.2-1.7-6.5c0-5.8,3.9-11,9.4-12.8c0.2-0.1,0.4-0.1,0.5-0.1L26.4,11.7z
		 M7.9,16.4c-1,0-1.7-0.8-1.7-1.7c0-0.7,0.4-1.3,1-1.6v1.1c0,0.4,0.3,0.7,0.7,0.7s0.7-0.3,0.7-0.7v-1.1c0.6,0.3,1,0.9,1,1.5
		C9.7,15.6,8.9,16.4,7.9,16.4z M8.7,11.7v-6c0,0,0-1.7,1.2-2.9c0.9-0.9,2.2-1.4,4-1.4c1.8,0,3.1,0.5,4,1.4c1.2,1.2,1.2,2.8,1.2,2.9
		v6H8.7z M19.8,16.4c-1,0-1.7-0.8-1.7-1.7c0-0.7,0.4-1.3,1-1.6v1.1c0,0.4,0.3,0.7,0.7,0.7s0.7-0.3,0.7-0.7v-1.1c0.6,0.3,1,0.9,1,1.6
		C21.6,15.6,20.8,16.4,19.8,16.4z"/>
	<path class="st0" d="M30.5,24c-2.1,0-4.2,0.6-6,1.7l0,0c-0.1,0.1-0.2,0.1-0.3,0.2C21,28,19,31.6,19,35.5s2,7.5,5.2,9.6
		c0.1,0.1,0.2,0.1,0.3,0.2l0,0c1.8,1.1,3.9,1.7,6,1.7C36.8,47,42,41.8,42,35.5C42,29.2,36.8,24,30.5,24z M31.5,42.2v2.2h-1.8v-2.1
		c-1-0.1-2-0.5-2.7-1L26.7,41l0.9-1.6l0.5,0.4c0.6,0.5,1.4,0.7,2.2,0.7c1.3,0,2.2-0.8,2.2-1.9c0-1-0.6-1.7-2-2.3
		c-2.1-0.9-3.4-1.9-3.4-3.8c0-1.7,1.1-3,2.8-3.4v-2.2h1.8v2.1c0.8,0.1,1.6,0.4,2.2,0.8l0.4,0.3l-0.9,1.6l-0.5-0.3
		c-0.3-0.2-1-0.6-2-0.6c-1.8,0-1.9,1.4-1.9,1.6c0,0.9,0.5,1.4,2.2,2.2c1.6,0.7,3.3,1.8,3.3,4.1C34.4,40,33.5,41.7,31.5,42.2z"/>
</g>
</svg>
