<?xml version="1.0" encoding="utf-8"?>
<!-- Generator: Adobe Illustrator 19.0.1, SVG Export Plug-In . SVG Version: 6.00 Build 0)  -->
<svg version="1.1" id="Layer_1" xmlns="http://www.w3.org/2000/svg" xmlns:xlink="http://www.w3.org/1999/xlink" x="0px" y="0px"
	 viewBox="0 0 34 38" style="enable-background:new 0 0 34 38;" xml:space="preserve">
<style type="text/css">
	.st0{fill:#C2C2C2;}
</style>
<g>
	<g>
		<path class="st0" d="M12.2,23.9c0,0-12.5-8.9-12.3-16.1c0,0,0-0.1,0-0.1c0-0.1,0-0.2,0-0.3c0-3.7,2.8-6.8,6.3-6.8
			c2.8,0,5.2,1.9,6,4.6c0-0.1,0-0.1,0,0c0.8-2.7,3.2-4.6,6-4.6c3.5,0,6.3,3,6.3,6.8c0,0.1,0,0.2,0,0.3c0,0,0,0.1,0,0.1
			C24.8,14.9,12.2,23.9,12.2,23.9z"/>
	</g>
	<g>
		<polygon class="st0" points="34,37.5 2,37.5 2,18.2 4.1,18.2 4.1,35.4 32,35.4 32,4.8 25.2,4.8 25.2,2.8 34,2.8 		"/>
	</g>
	<g>
		<path class="st0" d="M29.3,33H7.2v-2.2h22.1V33z"/>
	</g>
	<g>
		<path class="st0" d="M29.6,27.1H14.3v-2.2h15.3V27.1z"/>
	</g>
	<g>
		<path class="st0" d="M29.8,20.8h-8.2v-2.2h8.2C29.8,18.6,29.8,20.8,29.8,20.8z"/>
	</g>
</g>
</svg>
