<?xml version="1.0" encoding="utf-8"?>
<!-- Generator: Adobe Illustrator 19.0.1, SVG Export Plug-In . SVG Version: 6.00 Build 0)  -->
<svg version="1.1" id="Layer_1" xmlns="http://www.w3.org/2000/svg" xmlns:xlink="http://www.w3.org/1999/xlink" x="0px" y="0px"
	 viewBox="0 0 34 34" style="enable-background:new 0 0 34 34;" xml:space="preserve">
<style type="text/css">
	.st0{fill:#C2C2C2;}
</style>
<path class="st0" d="M31.6,17c0,1.4,1,2.5,2.4,2.6c-0.4,2.8-1.5,5.4-3.2,7.6c-1-0.9-2.5-0.8-3.5,0.1c-1,1-1,2.5-0.1,3.5
	c-2.2,1.6-4.8,2.7-7.6,3.2c-0.1-1.3-1.2-2.4-2.6-2.4s-2.5,1-2.6,2.4c-2.8-0.4-5.4-1.5-7.7-3.2c1-1,1-2.6,0-3.6c-1-1-2.6-1-3.6,0
	C1.5,25,0.4,22.4,0,19.6c1.3-0.1,2.4-1.2,2.4-2.6s-1-2.5-2.4-2.6C0.4,11.6,1.5,9,3.2,6.8c1,0.9,2.5,0.8,3.5-0.1c1-1,1-2.5,0.1-3.5
	C9,1.5,11.6,0.4,14.4,0c0.1,1.3,1.2,2.4,2.6,2.4s2.5-1,2.6-2.4c2.8,0.4,5.4,1.5,7.7,3.2c-0.9,1-0.9,2.6,0.1,3.5c1,1,2.5,1,3.6,0.1
	c1.6,2.2,2.8,4.8,3.2,7.7C32.7,14.5,31.6,15.6,31.6,17z M17,12.7c-2.4,0-4.3,1.9-4.3,4.3s1.9,4.3,4.3,4.3s4.3-1.9,4.3-4.3
	S19.4,12.7,17,12.7z"/>
</svg>
