<?xml version="1.0" encoding="utf-8"?>
<!-- Generator: Adobe Illustrator 19.0.1, SVG Export Plug-In . SVG Version: 6.00 Build 0)  -->
<svg version="1.1" id="Layer_1" xmlns="http://www.w3.org/2000/svg" xmlns:xlink="http://www.w3.org/1999/xlink" x="0px" y="0px"
	 viewBox="0 0 38 27" style="enable-background:new 0 0 38 27;" xml:space="preserve">
<style type="text/css">
	.st0{fill:#C2C2C2;}
</style>
<path class="st0" d="M37.3,0.3H0.7C0.3,0.3,0,0.6,0,1v25c0,0.4,0.3,0.7,0.7,0.7h36.6c0.4,0,0.7-0.3,0.7-0.7V1
	C38,0.6,37.7,0.3,37.3,0.3z M29.7,23.3c-1.1,0-2.1-0.6-2.6-1.5c-0.5,0.9-1.5,1.5-2.6,1.5c-1.7,0-3.1-1.4-3.1-3.1s1.4-3.1,3.1-3.1
	c1.1,0,2.1,0.6,2.6,1.5c0.5-0.9,1.5-1.5,2.6-1.5c1.7,0,3.1,1.4,3.1,3.1S31.4,23.3,29.7,23.3z M32.7,13.7H5.4c-0.5,0-1-0.4-1-1
	c0-0.5,0.4-1,1-1h27.2c0.5,0,1,0.4,1,1C33.6,13.2,33.2,13.7,32.7,13.7z M32.7,5.8H24c-0.5,0-1-0.4-1-1c0-0.5,0.4-1,1-1h8.7
	c0.5,0,1,0.4,1,1C33.6,5.4,33.2,5.8,32.7,5.8z"/>
</svg>
