<?xml version="1.0" encoding="utf-8"?>
<!-- Generator: Adobe Illustrator 19.0.1, SVG Export Plug-In . SVG Version: 6.00 Build 0)  -->
<svg version="1.1" id="Layer_1" xmlns="http://www.w3.org/2000/svg" xmlns:xlink="http://www.w3.org/1999/xlink" x="0px" y="0px"
	 viewBox="0 0 47 38" style="enable-background:new 0 0 47 38;" xml:space="preserve">
<style type="text/css">
	.st0{fill:#C2C2C2;}
</style>
<g>
	<path class="st0" d="M38.8,0H1C0.6,0,0.2,0.3,0.2,0.8v26c0,0.4,0.3,0.8,0.8,0.8h22.3c0-0.1,0-0.1,0-0.2c0-7,5.8-12.8,12.8-12.8
		c1.2,0,2.4,0.2,3.5,0.5V0.8C39.6,0.4,39.2,0,38.8,0z M5.6,9.2h6.2v6.4H5.6V9.2z M11.2,23.9H5.6c-0.6,0-1-0.5-1-1c0-0.6,0.5-1,1-1
		h5.6c0.6,0,1,0.5,1,1C12.3,23.5,11.8,23.9,11.2,23.9z M21.2,23.9h-5.6c-0.6,0-1-0.5-1-1c0-0.6,0.5-1,1-1h5.6c0.6,0,1,0.5,1,1
		C22.2,23.5,21.7,23.9,21.2,23.9z M34.1,5.7h-9.2c-0.6,0-1-0.5-1-1c0-0.6,0.5-1,1-1h9.2c0.6,0,1,0.5,1,1C35.1,5.3,34.6,5.7,34.1,5.7
		z"/>
	<path class="st0" d="M36.1,16.6c-6,0-10.7,4.9-10.7,10.7c0,6,4.9,10.7,10.7,10.7c6,0,10.7-4.9,10.7-10.7S42,16.6,36.1,16.6z
		 M35.6,26.1c0.1,0.2,0.4,0.4,0.8,0.6c0.9,0.4,1.5,0.8,1.9,1.3c0.4,0.5,0.6,1.1,0.6,1.8c0,0.8-0.2,1.4-0.6,1.8
		c-0.4,0.5-1,0.7-1.7,0.8v1.3h-1v-1.3c-0.7-0.1-1.3-0.4-1.8-0.9c-0.5-0.5-0.7-1.3-0.7-2.2H35c0,0.6,0.1,1,0.3,1.3
		c0.2,0.3,0.5,0.4,0.8,0.4s0.5-0.1,0.6-0.3c0.1-0.2,0.2-0.5,0.2-0.9c0-0.4-0.1-0.7-0.2-0.9c-0.1-0.2-0.4-0.4-0.8-0.6
		c-0.9-0.4-1.5-0.8-1.9-1.2c-0.4-0.4-0.6-1.1-0.6-1.9c0-0.7,0.2-1.3,0.6-1.8s1-0.8,1.7-0.8v-1.4h1v1.4c0.7,0.1,1.2,0.5,1.6,1
		c0.4,0.5,0.6,1.2,0.6,2.1H37c0-0.5-0.1-0.9-0.2-1.2c-0.2-0.3-0.4-0.5-0.6-0.5c-0.3,0-0.5,0.1-0.6,0.3c-0.1,0.2-0.2,0.5-0.2,0.9
		C35.4,25.6,35.5,25.9,35.6,26.1z"/>
</g>
</svg>
