<?xml version="1.0" encoding="utf-8"?>
<!-- Generator: Adobe Illustrator 19.0.1, SVG Export Plug-In . SVG Version: 6.00 Build 0)  -->
<svg version="1.1" id="Layer_1" xmlns="http://www.w3.org/2000/svg" xmlns:xlink="http://www.w3.org/1999/xlink" x="0px" y="0px"
	 viewBox="0 0 82 80" style="enable-background:new 0 0 82 80;" xml:space="preserve">
<style type="text/css">
	.st0{fill:#FCDA00;}
</style>
<g id="jXG0nn.tif">
	<g>
		<path class="st0" d="M81.7,0.8l-3.3,7.6c0,0-5.5,0-8.3,0c-0.9,3.3-1.8,6.6-2.7,9.9C63.6,32,59.8,45.9,56,59.7
			c-0.9,3.3-3.7,5.4-7.2,5.4c-12.6,0-18.4,0-31,0c-0.2,0-0.8,0-0.8,0l-2.2-7.6c0,0,22,0,32.9,0c0.6,0,1-0.1,1.1-0.8
			c0.4-1.8,1-3.6,1.5-5.5c-10.7,0-18.1,0-28.7,0c-2.7,0-8,0-8,0S1.4,17.5,0.3,13.4c20.2,0,40.4,0,60.6,0c1-3.6,2-7.1,2.9-10.6
			c0.2-0.7,0.3-1.4,0.5-2.1C69,0.8,81.7,0.8,81.7,0.8z"/>
		<path class="st0" d="M26,79.2c-0.2-0.1-0.4-0.1-0.6-0.2c-1.8-0.6-3.1-2.4-3-4.3c0.1-1.9,1.4-3.6,3.3-4.1c2.4-0.6,4.7,0.7,5.3,3.1
			c0.6,2.3-0.7,4.7-3,5.4c-0.2,0-0.3,0.1-0.5,0.2C27.1,79.2,26.6,79.2,26,79.2z"/>
		<path class="st0" d="M41.9,79.2c-0.2-0.1-0.4-0.1-0.6-0.2c-1.8-0.6-3.1-2.4-3-4.3c0.1-1.9,1.4-3.6,3.3-4.1
			c2.4-0.6,4.7,0.7,5.3,3.1c0.6,2.3-0.7,4.7-3,5.4c-0.2,0-0.3,0.1-0.5,0.2C42.9,79.2,42.4,79.2,41.9,79.2z"/>
	</g>
</g>
</svg>
