<?xml version="1.0" encoding="utf-8"?>
<!-- Generator: Adobe Illustrator 19.0.1, SVG Export Plug-In . SVG Version: 6.00 Build 0)  -->
<svg version="1.1" id="Layer_1" xmlns="http://www.w3.org/2000/svg" xmlns:xlink="http://www.w3.org/1999/xlink" x="0px" y="0px"
	 viewBox="0 0 114 114" style="enable-background:new 0 0 114 114;" xml:space="preserve">
<style type="text/css">
	.st0{fill:#666666;}
</style>
<path class="st0" d="M54.4,20.4c0,11-8.9,19.9-19.9,19.9c-11,0-19.9-8.9-19.9-19.9c0-11,8.9-19.9,19.9-19.9
	C45.5,0.6,54.4,9.5,54.4,20.4z M103.4,59.2v4c0,4.4-3.6,8-8,8H83.1v42.1h-3.5V71.3H58.4v42.1H10.6V66.2c0-8.3,6.7-15.1,15.1-15.1
	h16.7c0.1,0,0.1,0,0.2,0h37V35.3c-0.7-0.5-1.3-1.3-1.7-1.8l-3.7-5.2c-1-1.3-1.7-3.7-1.7-5.3v-2.7c0-2.1,1.7-3.8,3.8-3.8h0V7.3h2.5
	v9.3h5.6V7.3h2.5v9.3c1.9,0.2,3.4,1.8,3.4,3.8V23c0,1.6-0.7,4-1.7,5.3l-3.5,5.1c-0.4,0.6-1.2,1.5-2,2.1v15.6h12.2
	C99.8,51.1,103.4,54.7,103.4,59.2z M37.8,71.8l3.8-10.5h-9.5l-4.7,17.5h5.7L30.5,89h4.4l-1.7,14.2l6.4-20.2h-2.1l4.1-11.2L37.8,71.8
	z"/>
</svg>
