<?xml version="1.0" encoding="utf-8"?>
<!-- Generator: Adobe Illustrator 19.0.1, SVG Export Plug-In . SVG Version: 6.00 Build 0)  -->
<svg version="1.1" id="Layer_1" xmlns="http://www.w3.org/2000/svg" xmlns:xlink="http://www.w3.org/1999/xlink" x="0px" y="0px"
	 viewBox="0 0 114 114" style="enable-background:new 0 0 114 114;" xml:space="preserve">
<style type="text/css">
	.st0{fill:#666666;}
</style>
<g>
	<g>
		<path class="st0" d="M103.3,20.4H92.3V1L72.6,20.4h-39c-5.5,0-9.9,4.5-9.9,9.9v3.4H10.7c-5.5,0-9.9,4.5-9.9,9.9v40.5
			c0,5.5,4.5,9.9,9.9,9.9h10.9v19.4L41.5,94h39c5.5,0,9.9-4.5,9.9-9.9v-3.3h12.9c2.8,0,5.3-1.1,7-2.9c0.3-0.3,0.5-0.5,0.6-0.8
			c1.4-1.8,2.3-3.9,2.3-6.3V30.3C113.3,24.8,108.8,20.4,103.3,20.4z M109.5,70.9c0,1.3-0.4,2.5-1,3.5c-1.1,1.6-3,2.8-5.2,2.8H90.4
			l0,0H33.6c-3.4,0-6.2-2.8-6.2-6.2V33.7v-3.4c0-3.4,2.8-6.2,6.2-6.2h39h1.5l1.1-1.1L88.7,9.9v10.4l0,0v3.8h3.8h10.9
			c3.4,0,6.2,2.8,6.2,6.2L109.5,70.9z"/>
		<path class="st0" d="M67,33.6c-2.9,0-5.3,0.8-7.2,2.3c-1.5,1.3-2.4,2.9-2.6,5c-0.1,0.6,0.5,1.3,1.1,1.3h3.1c0.5,0,1-0.4,1.1-1
			c0.1-0.9,0.5-1.5,1.1-2c0.9-0.6,2-1,3.3-1c1.5,0,2.6,0.4,3.4,1.1c0.8,0.8,1.1,1.9,1.1,3.4c0,1.3-0.4,2.4-1,3.4
			c-0.6,1-1.6,2.1-2.8,3.3c-1.6,1.4-2.8,2.5-3.1,3.4c-0.4,0.8-0.6,1.9-0.6,3.4c0,0.6,0.5,1.3,1.1,1.3h3.1c0.6,0,1.1-0.5,1.1-1.1
			c0-0.8,0.1-1.4,0.3-1.9c0.3-0.6,0.8-1.4,1.6-2.1c1.6-1.4,3-2.8,4.1-4.4c1.1-1.5,1.6-3.4,1.6-5.4c0-2.9-0.9-5.2-2.6-6.7
			C72.7,34.3,70.2,33.6,67,33.6z"/>
		<circle class="st0" cx="66.5" cy="64.9" r="3"/>
	</g>
</g>
</svg>
