<?xml version="1.0" encoding="utf-8"?>
<!-- Generator: Adobe Illustrator 19.0.1, SVG Export Plug-In . SVG Version: 6.00 Build 0)  -->
<svg version="1.1" id="Layer_1" xmlns="http://www.w3.org/2000/svg" xmlns:xlink="http://www.w3.org/1999/xlink" x="0px" y="0px"
	 viewBox="0 0 50 50" style="enable-background:new 0 0 50 50;" xml:space="preserve">
<style type="text/css">
	.st0{fill:#FFFFFF;}
</style>
<g>
	<path class="st0" d="M30.7,49.3c0-5.6,0-11.2,0-16.8c2.5,0,4.9,0,7.4,0c0-2.5,0-5,0-7.5c-2.5,0-4.9,0-7.4,0c0-0.2,0-0.3,0-0.4
		c0-1.7,0-3.4,0-5.1c0-1.4,0.5-1.9,1.9-1.9c2.1,0,4.3,0,6.4,0c0.3,0,0.6,0,1,0c0-2.5,0-5,0-7.5c-0.4,0-0.8,0-1.2,0c-3,0-6.1,0-9.1,0
		c-3.6,0-6.5,2.9-6.5,6.5c0,2.6,0,5.2,0,7.8c0,0.2,0,0.4,0,0.7c-1.3,0-2.5,0-3.8,0c-1.2,0-2.4,0-3.7,0c0,2.5,0,5,0,7.5
		c2.5,0,4.9,0,7.4,0c0,5.6,0,11.2,0,16.8c-0.1,0-0.3,0-0.4,0c-4.8,0-9.6,0-14.4,0c-3.6,0-6.6-2.4-7.3-5.9C0.6,42,0.7,40.4,0.7,39
		c0-10.1,0-20.1,0-30.2c0-3,1-5.3,3.5-6.9C5.4,1.1,6.7,0.7,8,0.7c5.7,0,11.4,0,17.1,0c5.4,0,10.8,0,16.1,0C44.6,0.7,47,2,48.6,5
		c0.5,1,0.7,2.1,0.7,3.2c0,9.7,0,19.5,0,29.2c0,1.8,0.1,3.6-0.1,5.3c-0.4,3.7-3.3,6.3-7,6.6c-0.2,0-0.3,0-0.5,0
		C38.1,49.3,34.4,49.3,30.7,49.3z"/>
</g>
</svg>
