<?xml version="1.0" encoding="utf-8"?>
<!-- Generator: Adobe Illustrator 19.0.1, SVG Export Plug-In . SVG Version: 6.00 Build 0)  -->
<svg version="1.1" id="Layer_1" xmlns="http://www.w3.org/2000/svg" xmlns:xlink="http://www.w3.org/1999/xlink" x="0px" y="0px"
	 viewBox="0 0 240 61" style="enable-background:new 0 0 240 61;" xml:space="preserve">
<style type="text/css">
	.st0{fill:none;stroke:#F9DD00;stroke-miterlimit:10;}
	.st1{fill:#FFDB00;}
	.st2{fill:#F9DD00;}
</style>
<g>
	<path class="st0" d="M239.2,43.2c0,8.8-7.1,15.9-15.9,15.9H17.3C8.5,59.1,1.4,52,1.4,43.2V18.6c0-8.8,7.1-15.9,15.9-15.9h206.1
		c8.8,0,15.9,7.1,15.9,15.9V43.2z"/>
	<path class="st1" d="M69.9,28.6l10.8-15.2c0,0,6-1.4,9.6-1.4h22.7c12.8,0,20.4,2.5,20.4,13.4v11c0,10.8-7.6,13.4-20.4,13.4H90.2
		c-12.8,0-20.4-2.6-20.4-13.4V28.6z M84.4,32.8c0,5.4,1.4,7.4,8.1,7.4h18.1c6.7,0,8.1-2,8.1-7.4v-4c0-4.6-1.4-7.4-8.9-7.4H93.3
		c-7.5,0-8.9,2.8-8.9,7.4V32.8z"/>
	<path class="st1" d="M69.9,28.6l10.8-15.2c0,0,6-1.4,9.6-1.4h22.7c12.8,0,20.4,2.5,20.4,13.4v11c0,10.8-7.6,13.4-20.4,13.4H90.2
		c-12.8,0-20.4-2.6-20.4-13.4V28.6z M84.4,32.8c0,5.4,1.4,7.4,8.1,7.4h18.1c6.7,0,8.1-2,8.1-7.4v-4c0-4.6-1.4-7.4-8.9-7.4H93.3
		c-7.5,0-8.9,2.8-8.9,7.4V32.8z"/>
	<polygon class="st1" points="10.2,12.4 25.7,12.4 43.7,39.8 63.3,11.9 78.8,11.9 52.5,49.3 35,49.3 	"/>
	<polygon class="st1" points="10.2,12.4 25.7,12.4 43.7,39.8 63.3,11.9 78.8,11.9 52.5,49.3 35,49.3 	"/>
	<polygon class="st1" points="135.5,12.4 149.7,12.4 149.7,39.8 193,39.8 200.2,49.3 135.5,49.3 	"/>
	<polygon class="st1" points="135.5,12.4 149.7,12.4 149.7,39.8 193,39.8 200.2,49.3 135.5,49.3 	"/>
	<polygon class="st1" points="175.8,12.4 229.8,12.4 229.8,21.5 209.9,21.5 209.9,49.3 203.2,49.3 195.7,39.5 195.7,21.5 
		175.8,21.5 	"/>
	<polygon class="st1" points="175.8,12.4 229.8,12.4 229.8,21.5 209.9,21.5 209.9,49.3 203.2,49.3 195.7,39.5 195.7,21.5 
		175.8,21.5 	"/>
	<path class="st2" d="M224.9,41.9c2,0,3.6,1.6,3.6,3.6c0,2-1.6,3.6-3.6,3.6c-2,0-3.6-1.6-3.6-3.6C221.3,43.5,222.9,41.9,224.9,41.9
		L224.9,41.9z M224.9,42.5c-1.6,0-2.9,1.4-2.9,3.1c0,1.7,1.3,3.1,2.9,3.1c1.6,0,2.9-1.4,2.9-3.1C227.8,43.8,226.5,42.5,224.9,42.5
		L224.9,42.5z M224.2,47.6h-0.6v-4c0.3,0,0.7-0.1,1.1-0.1c0.6,0,1,0.1,1.3,0.3c0.2,0.2,0.4,0.5,0.4,0.8c0,0.5-0.4,0.9-0.8,1v0
		c0.4,0.1,0.6,0.4,0.7,1c0.1,0.6,0.2,0.9,0.3,1h-0.7c-0.1-0.1-0.2-0.5-0.3-1c-0.1-0.5-0.4-0.7-0.9-0.7h-0.5V47.6z M224.2,45.4h0.5
		c0.5,0,1-0.2,1-0.7c0-0.4-0.3-0.7-1-0.7c-0.2,0-0.4,0-0.5,0V45.4z"/>
</g>
</svg>
