<?xml version="1.0" encoding="utf-8"?>
<!-- Generator: Adobe Illustrator 19.0.1, SVG Export Plug-In . SVG Version: 6.00 Build 0)  -->
<svg version="1.1" id="Layer_1" xmlns="http://www.w3.org/2000/svg" xmlns:xlink="http://www.w3.org/1999/xlink" x="0px" y="0px"
	 viewBox="0 0 50 50" style="enable-background:new 0 0 50 50;" xml:space="preserve">
<style type="text/css">
	.st0{fill:#FFFFFF;}
</style>
<g id="CuOqlB.tif">
	<g>
		<path class="st0" d="M32,2.8c-1.2,0.7-2.3,1.3-3.5,2c-0.2,0.1-0.4,0.1-0.5,0.1c-1,0-2.1,0-3,0c0.4,0.4,0.8,0.9,1.2,1.4
			c1.4,1.5,2.3,3.3,2.6,5.3c0.3,2.6-0.3,5-2.1,6.9c-0.8,0.8-1.7,1.5-2.5,2.3c-0.7,0.6-1.4,1.3-1.7,2.2c-0.3,1-0.1,2,0.7,2.7
			c0.9,0.8,1.9,1.5,2.8,2.3c1,0.9,2.1,1.8,3,2.9c2.1,2.5,2.4,5.4,1.3,8.4c-0.8,2.3-2.4,3.9-4.4,5.2c-2.2,1.4-4.7,2.2-7.3,2.5
			c-0.4,0.1-0.9,0.1-1.3,0.2c-1.1,0-2.2,0-3.3,0c-0.2,0-0.3-0.1-0.5-0.1c-1.9-0.2-3.8-0.6-5.6-1.4c-2.1-1-3.8-2.5-4.5-4.8
			c-0.1-0.4-0.2-0.8-0.3-1.2c0-0.6,0-1.2,0-1.7c0,0,0.1-0.1,0.1-0.2c0.4-2.5,1.8-4.4,3.9-5.8c2.6-1.7,5.5-2.4,8.5-2.8
			c1-0.1,2-0.2,3.1-0.3c-1.6-1.9-2.3-3.8-1.2-6c-1.2-0.1-2.4,0-3.6-0.2c-2.6-0.4-4.7-1.6-6.2-3.8C5.3,15.7,5.3,12.4,7.2,9
			c1.9-3.4,5-5.1,8.7-5.8c0.8-0.2,1.6-0.2,2.5-0.4C22.9,2.8,27.4,2.8,32,2.8z M18.3,44.7c0.4,0,0.9,0,1.3-0.1
			c1.6-0.1,3.1-0.5,4.4-1.3c3.3-2,3.8-6.2,1.1-8.9c-1.3-1.4-2.9-2.5-4.5-3.6c-0.2-0.1-0.4-0.2-0.6-0.2c-1.3,0.1-2.6,0.1-3.9,0.2
			c-1.8,0.2-3.6,0.7-5.2,1.6c-2.6,1.5-3.6,4.5-2.5,7.2c0.7,1.8,2.1,2.9,3.8,3.7C14.2,44.4,16.2,44.7,18.3,44.7z M11,11.4
			c0.1,2.3,0.8,4.9,2.5,7.2c1.5,2,3.4,3.1,6,2.5c1.9-0.4,3.4-1.5,3.9-3.5c0.2-0.8,0.3-1.6,0.3-2.3c-0.1-1.2-0.2-2.4-0.5-3.5
			c-0.5-2.1-1.5-4-3.1-5.6c-2.3-2.2-6.1-1.9-7.9,0.6C11.3,8.1,11,9.4,11,11.4z"/>
		<path class="st0" d="M37.6,21.7c0-2.1,0-4.2,0-6.3c1,0,2.1,0,3.1,0c0,2.1,0,4.2,0,6.3c2.1,0,4.2,0,6.3,0c0,1.1,0,2.1,0,3.2
			c-2.1,0-4.1,0-6.3,0c0,2.1,0,4.2,0,6.3c-1.1,0-2.1,0-3.1,0c0-2.1,0-4.1,0-6.3c-2.1,0-4.2,0-6.3,0c0-1.1,0-2.1,0-3.2
			C33.4,21.7,35.5,21.7,37.6,21.7z"/>
	</g>
</g>
</svg>
