<?xml version="1.0" encoding="utf-8"?>
<!-- Generator: Adobe Illustrator 19.0.1, SVG Export Plug-In . SVG Version: 6.00 Build 0)  -->
<svg version="1.1" id="Layer_1" xmlns="http://www.w3.org/2000/svg" xmlns:xlink="http://www.w3.org/1999/xlink" x="0px" y="0px"
	 viewBox="0 0 50 50" style="enable-background:new 0 0 50 50;" xml:space="preserve">
<style type="text/css">
	.st0{fill:#FFFFFF;}
</style>
<g id="zrW47j.tif">
	<g>
		<path class="st0" d="M47.4,6.4c0,12.5,0,25,0,37.5c-0.1,0.4-0.2,0.8-0.4,1.1c-0.4,1-1.2,1.7-2.1,2.2c-13.3,0-26.6,0-40,0
			c-0.8-0.5-1.5-1-1.9-1.9c-0.2-0.4-0.3-0.9-0.5-1.3c0-12.5,0-25.1,0-37.6c0,0,0,0,0.1-0.1c0.7-2.5,2.1-3.6,4.7-3.6
			c8.6,0,17.2,0,25.8,0c3.3,0,6.6,0,9.9,0c1.9,0,3.5,1.1,4.1,2.7C47.3,5.8,47.3,6.1,47.4,6.4z M38.4,21.8c0.7,2.7,0.6,5.4-0.4,8.1
			c-0.9,2.6-2.6,4.8-4.8,6.5c-2.3,1.7-4.8,2.6-7.6,2.7c-3.7,0.1-7-1-9.8-3.5c-4.1-3.7-5.3-8.4-4.2-13.7c-1.3,0-2.6,0-3.8,0
			c0,0.6,0,1.1,0,1.6c0,5.7,0,11.3,0,17c0,1.4,0.6,2.1,2,2.1c10.2,0,20.3,0,30.5,0c1.4,0,2.1-0.6,2.1-2.1c0-6,0-12.1,0-18.1
			c0-0.2,0-0.3,0-0.5C40.9,21.8,39.7,21.8,38.4,21.8z M25,33.8c4.4,0.1,8.4-3.7,8.6-8.2c0.2-4.9-3.6-8.9-8.2-9c-5-0.2-8.9,3.5-9,8.4
			C16.3,29.7,20.1,33.8,25,33.8z M33.7,12.3C33.7,12.3,33.7,12.3,33.7,12.3c0,0.8,0,1.5,0,2.3c0,1.3,0.6,2,1.9,2c1.6,0,3.2,0,4.8,0
			c1.2,0,1.9-0.7,1.9-1.9c0-1.4,0-2.8,0-4.2c0.1-1.7-0.5-2.6-2.5-2.5c-1.4,0.1-2.8,0-4.2,0c-1.2,0-1.9,0.7-1.9,1.9
			C33.6,10.6,33.7,11.5,33.7,12.3z"/>
	</g>
</g>
</svg>
