<?xml version="1.0" encoding="utf-8"?>
<!-- Generator: Adobe Illustrator 19.0.1, SVG Export Plug-In . SVG Version: 6.00 Build 0)  -->
<svg version="1.1" id="Layer_1" xmlns="http://www.w3.org/2000/svg" xmlns:xlink="http://www.w3.org/1999/xlink" x="0px" y="0px"
	 viewBox="0 0 428 140" style="enable-background:new 0 0 428 140;" xml:space="preserve">
<style type="text/css">
	.st0{fill:none;stroke:#F9DD00;stroke-miterlimit:10;}
	.st1{fill:#FFDB00;}
	.st2{fill:#F9DD00;}
	.st3{opacity:0.3;}
	.st4{fill:#FFFFFF;}
	.st5{font-family:'Avenir-Heavy';}
	.st6{font-size:20px;}
	.st7{letter-spacing:9;}
	.st8{letter-spacing:4;}
</style>
<g>
	<path class="st0" d="M426.5,73.9c0,15.6-12.7,28.3-28.3,28.3H30.5c-15.6,0-28.3-12.7-28.3-28.3v-44c0-15.6,12.7-28.3,28.3-28.3
		h367.7c15.6,0,28.3,12.7,28.3,28.3V73.9z"/>
	<path class="st1" d="M124.3,47.8l19.2-27.2c0,0,10.8-2.5,17.1-2.5h40.5c22.8,0,36.3,4.5,36.3,23.8v19.6c0,19.3-13.5,23.8-36.3,23.8
		h-40.5c-22.8,0-36.3-4.6-36.3-23.8V47.8z M150.3,55.3c0,9.5,2.5,13.2,14.5,13.2H197c12,0,14.5-3.6,14.5-13.2v-7.1
		c0-8.2-2.5-13.2-15.8-13.2h-29.6c-13.3,0-15.8,5-15.8,13.2V55.3z"/>
	<path class="st1" d="M124.3,47.8l19.2-27.2c0,0,10.8-2.5,17.1-2.5h40.5c22.8,0,36.3,4.5,36.3,23.8v19.6c0,19.3-13.5,23.8-36.3,23.8
		h-40.5c-22.8,0-36.3-4.6-36.3-23.8V47.8z M150.3,55.3c0,9.5,2.5,13.2,14.5,13.2H197c12,0,14.5-3.6,14.5-13.2v-7.1
		c0-8.2-2.5-13.2-15.8-13.2h-29.6c-13.3,0-15.8,5-15.8,13.2V55.3z"/>
	<polygon class="st1" points="17.8,18.8 45.4,18.8 77.7,67.7 112.6,17.9 140.3,17.9 93.3,84.6 62.1,84.6 	"/>
	<polygon class="st1" points="17.8,18.8 45.4,18.8 77.7,67.7 112.6,17.9 140.3,17.9 93.3,84.6 62.1,84.6 	"/>
	<polygon class="st1" points="241.4,18.8 266.7,18.8 266.7,67.7 344.1,67.7 356.9,84.6 241.4,84.6 	"/>
	<polygon class="st1" points="241.4,18.8 266.7,18.8 266.7,67.7 344.1,67.7 356.9,84.6 241.4,84.6 	"/>
	<polygon class="st1" points="313.3,18.8 409.6,18.8 409.6,35.2 374.1,35.2 374.1,84.6 362.2,84.7 348.8,67.2 348.8,35.2 
		313.3,35.2 	"/>
	<polygon class="st1" points="313.3,18.8 409.6,18.8 409.6,35.2 374.1,35.2 374.1,84.6 362.2,84.7 348.8,67.2 348.8,35.2 
		313.3,35.2 	"/>
	<path class="st2" d="M400.8,71.5c3.5,0,6.3,2.9,6.3,6.5c0,3.6-2.8,6.5-6.4,6.5c-3.5,0-6.4-2.8-6.4-6.5
		C394.4,74.3,397.3,71.5,400.8,71.5L400.8,71.5z M400.8,72.5c-2.8,0-5.2,2.4-5.2,5.5c0,3.1,2.3,5.5,5.2,5.5c2.9,0,5.2-2.4,5.2-5.4
		C406,74.9,403.7,72.5,400.8,72.5L400.8,72.5z M399.6,81.7h-1.1v-7.2c0.6-0.1,1.2-0.2,2-0.2c1.1,0,1.8,0.2,2.2,0.5
		c0.4,0.3,0.7,0.8,0.7,1.5c0,0.9-0.6,1.5-1.4,1.7v0.1c0.6,0.1,1.1,0.7,1.2,1.8c0.2,1.1,0.3,1.6,0.5,1.8h-1.2
		c-0.2-0.2-0.3-0.9-0.5-1.8c-0.2-0.9-0.6-1.3-1.6-1.3h-0.8V81.7z M399.6,77.7h0.8c0.9,0,1.8-0.3,1.8-1.2c0-0.6-0.5-1.3-1.8-1.3
		c-0.4,0-0.6,0-0.8,0.1V77.7z"/>
</g>
<text transform="matrix(1 0 0 1 7.2313 126.7143)" class="st3"><tspan x="0" y="0" class="st4 st5 st6 st7">FACTORY DIRECT STOR</tspan><tspan x="398.8" y="0" class="st4 st5 st6 st8">E</tspan></text>
</svg>
