<?xml version="1.0" encoding="utf-8"?>
<!-- Generator: Adobe Illustrator 19.0.1, SVG Export Plug-In . SVG Version: 6.00 Build 0)  -->
<svg version="1.1" id="Layer_1" xmlns="http://www.w3.org/2000/svg" xmlns:xlink="http://www.w3.org/1999/xlink" x="0px" y="0px"
	 viewBox="0 0 57 51" style="enable-background:new 0 0 57 51;" xml:space="preserve">
<style type="text/css">
	.st0{fill:#5B5750;}
</style>
<path image-rendering="auto" color-rendering="auto" shape-rendering="auto" color-interpolation="sRGB" class="st0" d="M6.9,2.7
	C3.4,2.7,0.6,5.5,0.6,9v33c0,3.5,2.9,6.3,6.3,6.3h43.1c3.5,0,6.3-2.9,6.3-6.3V9c0-3.5-2.9-6.3-6.3-6.3H6.9 M6.9,5.2h43.1
	c2.1,0,3.8,1.7,3.8,3.8v0.1L28.5,34.5L3.1,9.1V9C3.1,6.9,4.8,5.2,6.9,5.2 M3.1,12.7l13.1,13.1L3.1,38.8V12.7 M53.9,12.7v25.7
	L41,25.6L53.9,12.7 M39.2,27.3L53.9,42v0c0,2.1-1.7,3.8-3.8,3.8H6.9c-2,0-3.6-1.5-3.8-3.4L18,27.6l9.6,9.6c0.5,0.5,1.3,0.5,1.8,0
	L39.2,27.3L39.2,27.3z"/>
</svg>
