<?xml version="1.0" encoding="utf-8"?>
<!-- Generator: Adobe Illustrator 19.0.1, SVG Export Plug-In . SVG Version: 6.00 Build 0)  -->
<svg version="1.1" id="Layer_1" xmlns="http://www.w3.org/2000/svg" xmlns:xlink="http://www.w3.org/1999/xlink" x="0px" y="0px"
	 viewBox="0 0 50 50" style="enable-background:new 0 0 50 50;" xml:space="preserve">
<style type="text/css">
	.st0{fill:#FFFFFF;}
</style>
<g id="_x35_8bD4A.tif">
	<g>
		<path class="st0" d="M18.7,47.5c2.4-3.3,2.7-7.2,3.8-11c0.5,0.5,0.9,1,1.4,1.3c1.9,1.4,4,1.6,6.2,1.3c3.4-0.6,6-2.5,7.8-5.3
			c2.5-3.9,3.4-8.2,2.7-12.7c-0.7-4.7-3.5-7.9-7.7-9.9c-6.1-2.9-14.7-1.4-19.4,3.4c-3.5,3.6-4.9,7.9-3.8,12.9
			c0.5,2.4,1.7,4.3,3.9,5.5c1.1,0.6,1.5,0.4,1.8-0.8c0.4-1.4,0.2-2.5-0.6-3.7c-1.5-2.2-1.2-4.8-0.5-7.3c1.6-5.4,6.4-8.1,11.7-7.8
			c1.6,0.1,3.2,0.4,4.6,1.2c2.9,1.6,4.2,4.1,4.3,7.3c0.1,3.1-0.4,6.2-1.9,8.9c-1,1.8-2.3,3.2-4.3,3.7c-2.2,0.6-4.4-0.5-4.8-2.5
			c-0.1-0.8-0.1-1.6,0.1-2.4c0.5-2.1,1.2-4.2,1.8-6.3c0.2-0.6,0.2-1.3,0.2-1.9c-0.2-2.8-2.8-4.1-5.1-2.5c-1.6,1.1-2.3,2.8-2.3,4.6
			c0,1.3,0.2,2.6,0.5,3.8c0.1,0.6,0.2,1.1,0,1.6c-1,4.1-2,8.3-3,12.5c-0.3,1.2-0.2,2.5-0.3,3.7c0,0.3,0,0.5,0,0.8
			C7.6,43.1-0.8,32.5,2.2,19.6c3-13,16.1-20.7,28.7-17.3C44.4,6,51.7,20.8,47,33.2C42.1,46.1,28.6,50.8,18.7,47.5z"/>
	</g>
</g>
</svg>
