<?xml version="1.0" encoding="utf-8"?>
<!-- Generator: Adobe Illustrator 19.0.1, SVG Export Plug-In . SVG Version: 6.00 Build 0)  -->
<svg version="1.1" id="Layer_1" xmlns="http://www.w3.org/2000/svg" xmlns:xlink="http://www.w3.org/1999/xlink" x="0px" y="0px"
	 viewBox="-78.5 -13.5 197 158" style="enable-background:new -78.5 -13.5 197 158;" xml:space="preserve">
<style type="text/css">
	.st0{fill:#666666;}
</style>
<g>
	<polygon class="st0" points="20,21.1 27.7,36.7 44.7,39.1 32.3,51.1 35.2,68.1 20,60.1 4.8,68.1 7.7,51.1 -4.7,39.1 12.3,36.7 	"/>
	<path class="st0" d="M-5.1,98.2v45L20,122.7l25.1,20.6v-45c-7.7,3.6-16.2,5.7-25.1,5.7C11,103.9,2.4,101.8-5.1,98.2z"/>
	<path class="st0" d="M20,101.5c-31.4,0-56.9-25.5-56.9-56.9S-11.4-12.3,20-12.3s56.9,25.5,56.9,56.9S51.4,101.5,20,101.5L20,101.5z
		 M20-0.9c-25.1,0-45.5,20.4-45.5,45.5S-5.1,90.2,20,90.2s45.5-20.4,45.5-45.5S45.1-0.9,20-0.9L20-0.9z"/>
</g>
</svg>
