<?xml version="1.0" encoding="utf-8"?>
<!-- Generator: Adobe Illustrator 19.0.1, SVG Export Plug-In . SVG Version: 6.00 Build 0)  -->
<svg version="1.1" id="Layer_1" xmlns="http://www.w3.org/2000/svg" xmlns:xlink="http://www.w3.org/1999/xlink" x="0px" y="0px"
	 viewBox="0 0 197 158" style="enable-background:new 0 0 197 158;" xml:space="preserve">
<style type="text/css">
	.st0{fill:#666666;}
</style>
<path class="st0" d="M193.3,50.5l-14,14V130c0,7-5.7,12.8-12.8,12.8H30.5c-7,0-12.8-5.7-12.8-12.8v-27.3l-9.4,9.4
	c-1.3,1.3-3.3,1.3-4.5,0c-1.3-1.3-1.3-3.3,0-4.5l14-14V28c0-7,5.7-12.8,12.8-12.8h136.1c7,0,12.8,5.7,12.8,12.8v27.4l9.4-9.4
	c1.3-1.3,3.3-1.3,4.5,0C194.5,47.2,194.5,49.2,193.3,50.5z M172.9,64.4l-14-14c-1.3-1.3-1.3-3.3,0-4.5c1.3-1.3,3.3-1.3,4.5,0
	l9.4,9.4V28c0-3.5-2.9-6.4-6.4-6.4H30.5c-3.5,0-6.4,2.9-6.4,6.4v65.6l14,14c1.3,1.3,1.3,3.3,0,4.5c-1.3,1.3-3.3,1.3-4.5,0l-9.4-9.4
	V130c0,3.5,2.9,6.4,6.4,6.4h136.1c3.5,0,6.4-2.9,6.4-6.4V64.4z M134.6,102.1c0,0.1,0,0.2,0,0.3c0,5.9-4.8,10.6-10.6,10.6
	c-5.9,0-10.6-4.8-10.6-10.6H98.5h-2.7H90c0,5.9-4.8,10.6-10.6,10.6s-10.6-4.8-10.6-10.6h-8.5c-4.7,0-8.5-3.8-8.5-8.5V53.5
	c0-4.7,3.8-8.5,8.5-8.5h38.3c4.7,0,8.5,3.8,8.5,8.5v10.6h25.5c4.7,0,8.5,3.8,8.5,8.5v21.3C141,97.9,138.3,101.2,134.6,102.1z
	 M79.4,96c-3.5,0-6.4,2.8-6.4,6.4c0,3.5,2.8,6.4,6.4,6.4c3.5,0,6.4-2.8,6.4-6.4C85.7,98.9,82.9,96,79.4,96z M124,108.8
	c3.5,0,6.4-2.8,6.4-6.4c0-3.5-2.8-6.4-6.4-6.4c-3.5,0-6.4,2.8-6.4,6.4C117.7,105.9,120.5,108.8,124,108.8z M130.4,68.4h-12.8
	c-3.5,0-6.4,2.9-6.4,6.4s2.9,6.4,6.4,6.4h12.8c3.5,0,6.4-2.9,6.4-6.4S133.9,68.4,130.4,68.4z"/>
</svg>
