<?xml version="1.0" encoding="utf-8"?>
<!-- Generator: Adobe Illustrator 19.0.1, SVG Export Plug-In . SVG Version: 6.00 Build 0)  -->
<svg version="1.1" id="Layer_1" xmlns="http://www.w3.org/2000/svg" xmlns:xlink="http://www.w3.org/1999/xlink" x="0px" y="0px"
	 viewBox="0 0 278 50" style="enable-background:new 0 0 278 50;" xml:space="preserve">
<style type="text/css">
	.st0{fill:#83949C;}
</style>
<g>
	<path class="st0" d="M46.6,21.7l-12.2,8.9l4.7,14.3c0.3,0.8,0,1.6-0.7,2.1c-0.3,0.2-0.7,0.4-1.1,0.4c-0.4,0-0.8-0.1-1.1-0.4
		L24,38.1L11.8,47c-0.7,0.5-1.6,0.5-2.2,0c-0.7-0.5-0.9-1.3-0.7-2.1l4.7-14.3L1.4,21.7c-0.7-0.5-0.9-1.3-0.7-2.1
		c0.3-0.8,1-1.3,1.8-1.3h15.1L22.2,4c0.3-0.8,1-1.3,1.8-1.3s1.5,0.5,1.8,1.3l4.7,14.3h15.1c0.8,0,1.5,0.5,1.8,1.3
		C47.6,20.4,47.3,21.2,46.6,21.7z"/>
	<path class="st0" d="M104.1,21.7l-12.2,8.9l4.7,14.3c0.3,0.8,0,1.6-0.7,2.1c-0.3,0.2-0.7,0.4-1.1,0.4S94,47.2,93.7,47l-12.2-8.9
		L69.3,47c-0.7,0.5-1.6,0.5-2.2,0c-0.7-0.5-0.9-1.3-0.7-2.1l4.7-14.3l-12.2-8.9c-0.7-0.5-0.9-1.3-0.7-2.1c0.3-0.8,1-1.3,1.8-1.3
		h15.1L79.7,4c0.3-0.8,1-1.3,1.8-1.3c0.8,0,1.5,0.5,1.8,1.3l4.7,14.3H103c0.8,0,1.5,0.5,1.8,1.3C105.1,20.4,104.8,21.2,104.1,21.7z"
		/>
	<path class="st0" d="M161.6,21.7l-12.2,8.9l4.7,14.3c0.3,0.8,0,1.6-0.7,2.1c-0.3,0.2-0.7,0.4-1.1,0.4s-0.8-0.1-1.1-0.4L139,38.1
		L126.8,47c-0.7,0.5-1.6,0.5-2.2,0c-0.7-0.5-0.9-1.3-0.7-2.1l4.7-14.3l-12.2-8.9c-0.7-0.5-0.9-1.3-0.7-2.1c0.3-0.8,1-1.3,1.8-1.3
		h15.1L137.2,4c0.3-0.8,1-1.3,1.8-1.3c0.8,0,1.5,0.5,1.8,1.3l4.7,14.3h15.1c0.8,0,1.5,0.5,1.8,1.3C162.5,20.4,162.3,21.2,161.6,21.7
		z"/>
	<path class="st0" d="M219.1,21.7l-12.2,8.9l4.7,14.3c0.3,0.8,0,1.6-0.7,2.1c-0.3,0.2-0.7,0.4-1.1,0.4c-0.4,0-0.8-0.1-1.1-0.4
		l-12.2-8.9L184.3,47c-0.7,0.5-1.6,0.5-2.2,0c-0.7-0.5-0.9-1.3-0.7-2.1l4.7-14.3l-12.2-8.9c-0.7-0.5-0.9-1.3-0.7-2.1
		c0.3-0.8,1-1.3,1.8-1.3h15.1L194.7,4c0.3-0.8,1-1.3,1.8-1.3s1.5,0.5,1.8,1.3l4.7,14.3H218c0.8,0,1.5,0.5,1.8,1.3
		C220,20.4,219.8,21.2,219.1,21.7z"/>
	<path class="st0" d="M276.6,21.7l-12.2,8.9l4.7,14.3c0.3,0.8,0,1.6-0.7,2.1c-0.3,0.2-0.7,0.4-1.1,0.4s-0.8-0.1-1.1-0.4L254,38.1
		L241.8,47c-0.7,0.5-1.6,0.5-2.2,0c-0.7-0.5-0.9-1.3-0.7-2.1l4.7-14.3l-12.2-8.9c-0.7-0.5-0.9-1.3-0.7-2.1c0.3-0.8,1-1.3,1.8-1.3
		h15.1L252.2,4c0.3-0.8,1-1.3,1.8-1.3c0.8,0,1.5,0.5,1.8,1.3l4.7,14.3h15.1c0.8,0,1.5,0.5,1.8,1.3C277.5,20.4,277.3,21.2,276.6,21.7
		z"/>
</g>
</svg>
