<?xml version="1.0" encoding="utf-8"?>
<!-- Generator: Adobe Illustrator 19.0.1, SVG Export Plug-In . SVG Version: 6.00 Build 0)  -->
<svg version="1.1" id="Layer_1" xmlns="http://www.w3.org/2000/svg" xmlns:xlink="http://www.w3.org/1999/xlink" x="0px" y="0px"
	 viewBox="0 0 102 98" style="enable-background:new 0 0 102 98;" xml:space="preserve">
<style type="text/css">
	.st0{fill:#009AFF;}
</style>
<g id="jXG0nn.tif">
	<g>
		<path class="st0" d="M101.1,0.7l-4,9.3c0,0-6.8,0-10.2,0c-1.1,4.1-2.3,8.2-3.4,12.2c-4.7,17-9.3,34-14,51c-1.1,4-4.6,6.7-8.8,6.7
			c-15.5,0-22.7,0-38.1,0c-0.3,0-0.9,0-0.9,0l-2.7-9.3c0,0,27,0,40.5,0c0.8,0,1.2-0.2,1.4-1c0.5-2.2,1.2-4.4,1.8-6.7
			c-13.2,0-22.2,0-35.4,0c-3.3,0-9.9,0-9.9,0S2.3,21.3,0.9,16.3c24.9,0,49.7,0,74.5,0c1.2-4.4,2.4-8.7,3.6-13
			c0.2-0.8,0.4-1.7,0.6-2.5C85.4,0.7,101.1,0.7,101.1,0.7z"/>
		<path class="st0" d="M32.6,97.3c-0.3-0.1-0.5-0.2-0.8-0.3c-2.2-0.8-3.8-2.9-3.7-5.3c0.1-2.4,1.8-4.5,4.1-5.1
			c2.9-0.7,5.8,0.9,6.6,3.8c0.8,2.8-0.8,5.7-3.7,6.6c-0.2,0.1-0.4,0.1-0.6,0.2C33.9,97.3,33.2,97.3,32.6,97.3z"/>
		<path class="st0" d="M52.1,97.3c-0.3-0.1-0.5-0.2-0.8-0.3c-2.2-0.8-3.8-2.9-3.7-5.3c0.1-2.4,1.8-4.5,4.1-5.1
			c2.9-0.7,5.8,0.9,6.6,3.8c0.8,2.8-0.8,5.7-3.7,6.6c-0.2,0.1-0.4,0.1-0.6,0.2C53.3,97.3,52.7,97.3,52.1,97.3z"/>
	</g>
</g>
</svg>
