<?xml version="1.0" encoding="utf-8"?>
<!-- Generator: Adobe Illustrator 19.0.1, SVG Export Plug-In . SVG Version: 6.00 Build 0)  -->
<svg version="1.1" id="Layer_1" xmlns="http://www.w3.org/2000/svg" xmlns:xlink="http://www.w3.org/1999/xlink" x="0px" y="0px"
	 viewBox="0 0 197 158" style="enable-background:new 0 0 197 158;" xml:space="preserve">
<style type="text/css">
	.st0{fill:#666666;}
</style>
<g>
	<path class="st0" d="M51.4,69.5H22.8c-1.9,0-3.8,0.8-5.1,2.3c-1.3,1.5-1.8,3.4-1.6,5.3L27,150c0.5,3.3,3.3,5.7,6.6,5.7h17.8
		c3.7,0,6.7-3,6.7-6.7V76.2C58.1,72.5,55.1,69.5,51.4,69.5L51.4,69.5z"/>
</g>
<path class="st0" d="M140.8,155.5H77.2c-6.2,0-11.1-2.9-12.4-7.3l-0.1-0.4V74c0-3.3,0.6-4.3,0.8-4.7l0.1-0.2
	c1.6-2.4,3.1-4.5,4.6-6.6C83.5,43.4,87.9,37,87.1,25.3C86.2,12.6,87.8,4,98.8,2.8c0.6-0.1,1.3-0.1,1.9-0.1c3.1,0,9.1,0.8,14.4,6
	c5.2,5.1,8.3,13,9.3,23.4c0.7,7.8-2.8,20.3-5,27c11.9,0,42.9,0,46.5,0c7.8,0,16.3,5.1,16.3,16.4c0,6.8-3.6,10.5-6.7,12.5
	c-0.1,0.1-0.2,0.1-0.3,0.2c1.8,2.1,3.3,5,3.3,9c0,6-3.6,10.1-8,12.6c1.8,2.4,2.8,5.3,2.8,8.7c0,4.3-1.6,9.7-8.6,13
	c1.3,2.3,2.1,5.4,1.5,9.3C165,148.1,155.9,155.5,140.8,155.5z M71.4,146.6c0.5,0.9,2.5,2.1,5.8,2.1h63.6c7.1,0,11.5-1.9,14-3.4
	c3.1-1.9,4.4-4.2,4.7-5.6c0.5-2.9-0.3-5.1-2.7-7.6l-4-4.1l5.6-1.4c7.2-1.8,8.1-5.3,8.1-8.1c0-3.3-1.3-5.4-4.2-6.8l-8.5-4.2l9.3-2.1
	c2-0.5,8.7-2.4,8.7-8.2c0-4.8-4.6-6.9-4.6-7l-10.6-4.9l11.5-1.5c0.8-0.1,7.4-1.4,7.4-8.4c0-9.2-8-9.7-9.6-9.7c-4.5,0-50.7,0-51.2,0
	l-4.8,0l1.7-4.5c2-5.3,6.9-20.9,6.1-28.5c-0.9-8.8-3.3-15.3-7.3-19.3c-3.6-3.6-7.6-4.1-9.7-4.1c-0.4,0-0.8,0-1.2,0.1
	c-3,0.3-4,1.2-4.7,2.5c-1.2,2.3-1.5,6.5-1.1,12.8c0.5,7-0.6,12.5-3.6,18.9c-2.9,6-7.5,12.6-14.4,22.6c-1.3,1.9-2.7,4-4.2,6.1
	c0,0.4-0.1,1.1-0.1,1.5V146.6z"/>
</svg>
