<?xml version="1.0" encoding="utf-8"?>
<!-- Generator: Adobe Illustrator 19.0.1, SVG Export Plug-In . SVG Version: 6.00 Build 0)  -->
<svg version="1.1" id="Layer_1" xmlns="http://www.w3.org/2000/svg" xmlns:xlink="http://www.w3.org/1999/xlink" x="0px" y="0px"
	 viewBox="0 0 114 114" style="enable-background:new 0 0 114 114;" xml:space="preserve">
<style type="text/css">
	.st0{fill:#666666;}
</style>
<g>
	<polygon class="st0" points="82.9,75.4 96.5,98 96.9,99 97,100.1 96.8,101.1 96.2,102.1 95.3,102.8 87.8,107.3 70.6,78.8 
		78.1,74.3 79.1,73.8 80.2,73.8 81.3,74 82.2,74.6 	"/>
	<polygon class="st0" points="68.1,80.3 85.3,108.8 83.7,109.9 82.1,110.7 80.3,111.1 78.5,111.3 76.6,111.1 74.7,110.8 70.9,109.8 
		67.3,108.5 63.9,106.8 60.7,105 57.6,102.9 54.7,100.6 52,98.2 49.4,95.6 46.9,92.8 44.6,89.9 42.2,87 37.7,80.9 27.8,64.4 
		24.5,57.6 23,54.2 21.5,50.7 20.2,47.2 19.1,43.7 18.2,40.2 17.5,36.5 17.1,32.9 17,29.1 17.1,25.4 17.6,21.6 18.5,17.8 19.1,15.9 
		19.8,14.2 20.8,12.6 22.1,11.3 23.5,10.2 25.2,9.3 42.4,37.8 41.4,38.5 40.7,39.5 40.2,40.6 40,41.8 40.2,43 40.4,44.2 41,46.6 
		41.9,48.9 42.8,51.2 44.8,55.6 53.5,69.9 56.4,73.8 58,75.6 59.6,77.4 61.5,79.1 62.4,79.9 63.4,80.5 64.6,81 65.8,81.1 67,80.8 	
		"/>
	<polygon class="st0" points="40,4.4 53.6,26.9 54,27.9 54.1,29 53.8,30.1 53.3,31 52.4,31.7 44.9,36.3 27.6,7.8 35.2,3.2 36.2,2.8 
		37.3,2.7 38.4,3 39.3,3.6 	"/>
</g>
</svg>
