<?xml version="1.0" encoding="utf-8"?>
<!-- Generator: Adobe Illustrator 19.0.1, SVG Export Plug-In . SVG Version: 6.00 Build 0)  -->
<svg version="1.1" id="Layer_1" xmlns="http://www.w3.org/2000/svg" xmlns:xlink="http://www.w3.org/1999/xlink" x="0px" y="0px"
	 viewBox="0 0 50 50" style="enable-background:new 0 0 50 50;" xml:space="preserve">
<style type="text/css">
	.st0{fill:#FFFFFF;}
</style>
<g id="GRh64i.tif">
	<g>
		<path class="st0" d="M0.3,40.6c5.5,0.5,10.4-0.9,14.9-4.2c-4.7-0.4-7.8-2.8-9.5-7.1c1.5,0.2,3,0.2,4.4-0.2
			c-2.3-0.6-4.2-1.8-5.7-3.7c-1.5-1.9-2.2-4-2.2-6.4c0.7,0.3,1.4,0.6,2.2,0.8c0.7,0.2,1.5,0.3,2.2,0.4c-4.4-3.8-5.4-8.3-3-13.6
			c5.6,6.5,12.5,10.1,21.1,10.7c-0.3-1.3-0.4-2.6-0.1-3.9c0.7-4,3-6.8,6.9-8.1c3.9-1.3,7.3-0.4,10.3,2.4C41.9,8,42.1,8,42.3,8
			c1.9-0.4,3.8-1.1,5.5-2.1c0.1-0.1,0.3-0.1,0.6-0.3c-0.8,2.4-2.2,4.2-4.2,5.5c1.9-0.2,3.7-0.7,5.5-1.5c-0.1,0.2-0.1,0.3-0.2,0.4
			c-1.2,1.8-2.7,3.3-4.4,4.6c-0.3,0.2-0.4,0.4-0.4,0.7c0.1,9.3-3.4,17.1-10.4,23.3c-3.7,3.2-8,5.2-12.8,6.1c-4.7,0.9-9.4,0.7-14-0.6
			c-2.5-0.7-4.9-1.8-7.1-3.2C0.4,40.8,0.4,40.7,0.3,40.6z"/>
	</g>
</g>
</svg>
