<?xml version="1.0" encoding="utf-8"?>
<!-- Generator: Adobe Illustrator 19.0.1, SVG Export Plug-In . SVG Version: 6.00 Build 0)  -->
<svg version="1.1" id="Layer_1" xmlns="http://www.w3.org/2000/svg" xmlns:xlink="http://www.w3.org/1999/xlink" x="0px" y="0px"
	 viewBox="0 0 50 50" style="enable-background:new 0 0 50 50;" xml:space="preserve">
<style type="text/css">
	.st0{fill:#FFFFFF;}
</style>
<g id="SKfqkI.tif">
	<g>
		<path class="st0" d="M1.5,29c0-2.7,0-5.4,0-8.1c0-0.2,0.1-0.3,0.1-0.5c0.1-1.5,0.2-3.1,0.2-4.6c0.2-3.7,3-6.6,6.7-6.7
			c4.6-0.1,9.3-0.3,13.9-0.3c6.4,0,12.7,0.2,19.1,0.3c3,0.1,5.5,2,6.3,4.9c0.3,1.2,0.3,2.5,0.4,3.8c0.1,1,0.1,2.1,0.2,3.1
			c0,2.7,0,5.4,0,8.1c0,0.2-0.1,0.3-0.1,0.5c-0.1,1.5-0.2,3.1-0.2,4.6c-0.2,3.8-3,6.6-6.8,6.7c-4.6,0.1-9.2,0.3-13.8,0.3
			c-6.4,0-12.7-0.2-19.1-0.3c-3.2-0.1-5.9-2.3-6.4-5.5c-0.3-1.7-0.3-3.4-0.4-5.1C1.6,29.8,1.6,29.4,1.5,29z M33.8,25
			c-4.9-3.4-9.7-6.8-14.6-10.2c0,6.9,0,13.6,0,20.5C24,31.8,28.9,28.4,33.8,25z"/>
	</g>
</g>
</svg>
